<?xml version="1.0" encoding="utf-8"?>
<!-- Generator: Adobe Illustrator 15.0.2, SVG Export Plug-In . SVG Version: 6.00 Build 0)  -->
<!DOCTYPE svg PUBLIC "-//W3C//DTD SVG 1.1//EN" "http://www.w3.org/Graphics/SVG/1.1/DTD/svg11.dtd">
<svg version="1.1" id="Layer_1" xmlns="http://www.w3.org/2000/svg" xmlns:xlink="http://www.w3.org/1999/xlink" x="0px" y="0px"
	 width="220px" height="196.625px" viewBox="146 172.688 220 196.625" enable-background="new 146 172.688 220 196.625"
	 xml:space="preserve">
<g>
	<g>
		<path fill="#1D1D1B" d="M157,194.688h198c6.072,0,11-4.927,11-11s-4.928-11-11-11H157c-6.073,0-11,4.927-11,11
			S150.927,194.688,157,194.688z M341.236,216.688H170.764c-6.073,0-11,4.927-11,11s4.927,11,11,11h170.473c6.073,0,11-4.927,11-11
			S347.31,216.688,341.236,216.688z M324.032,260.688H187.968c-6.073,0-11,4.928-11,11s4.927,11,11,11h136.064
			c6.073,0,11-4.928,11-11S330.105,260.688,324.032,260.688z M303.387,304.688h-94.774c-6.073,0-11,4.928-11,11s4.927,11,11,11
			h94.774c6.073,0,11-4.928,11-11S309.46,304.688,303.387,304.688z"/>
	</g>
</g>
<path fill="#1D1D1B" d="M282.742,347.312h-53.484c-6.072,0-11,4.928-11,11s4.928,11,11,11h53.484c6.072,0,11-4.928,11-11
	S288.814,347.312,282.742,347.312z"/>
</svg>
