<?xml version="1.0" encoding="utf-8"?>
<!-- Generator: Adobe Illustrator 15.0.2, SVG Export Plug-In . SVG Version: 6.00 Build 0)  -->
<!DOCTYPE svg PUBLIC "-//W3C//DTD SVG 1.1//EN" "http://www.w3.org/Graphics/SVG/1.1/DTD/svg11.dtd">
<svg version="1.1" id="Layer_1" xmlns="http://www.w3.org/2000/svg" xmlns:xlink="http://www.w3.org/1999/xlink" x="0px" y="0px"
	 width="220px" height="220px" viewBox="146 146 220 220" enable-background="new 146 146 220 220" xml:space="preserve">
<g>
	<g>
		<path fill="#1D1D1B" d="M317.875,173.5c-2.283,0-4.539,0.161-6.785,0.483C298.253,156.492,277.994,146,256,146
			c-21.995,0-42.244,10.492-55.089,27.983c-2.247-0.322-4.503-0.483-6.786-0.483c-26.533,0-48.125,21.592-48.125,48.125
			s21.592,48.125,48.125,48.125c5.881,0,11.638-1.074,17.062-3.151C223.63,277.448,239.457,283.5,256,283.5
			c16.561,0,32.37-6.052,44.812-16.901c5.425,2.077,11.182,3.151,17.062,3.151c26.533,0,48.125-21.592,48.125-48.125
			S344.408,173.5,317.875,173.5z M317.875,256c-7.358,0-14.144-2.363-19.738-6.302c-10.089,12.157-25.11,20.052-42.137,20.052
			s-32.048-7.896-42.136-20.052c-5.586,3.939-12.38,6.302-19.739,6.302c-18.987,0-34.375-15.388-34.375-34.375
			s15.388-34.375,34.375-34.375c4.646,0,9.05,0.949,13.079,2.614c9.122-17.796,27.437-30.114,48.796-30.114
			s39.675,12.318,48.787,30.114c4.037-1.665,8.451-2.614,13.088-2.614c18.986,0,34.375,15.388,34.375,34.375
			S336.861,256,317.875,256z M242.68,352.25c0,7.6,6.15,13.75,13.75,13.75c7.6,0,13.75-6.15,13.75-13.75s-13.75-27.5-13.75-27.5
			S242.68,344.65,242.68,352.25z M297.25,338.5c0,7.6,6.15,13.75,13.75,13.75s13.75-6.15,13.75-13.75S311,311,311,311
			S297.25,330.9,297.25,338.5z M187.25,311c0,7.6,6.15,13.75,13.75,13.75s13.75-6.15,13.75-13.75S201,283.5,201,283.5
			S187.25,303.4,187.25,311z"/>
	</g>
</g>
</svg>
