<?xml version="1.0" encoding="utf-8"?>
<!-- Generator: Adobe Illustrator 15.0.2, SVG Export Plug-In . SVG Version: 6.00 Build 0)  -->
<!DOCTYPE svg PUBLIC "-//W3C//DTD SVG 1.1//EN" "http://www.w3.org/Graphics/SVG/1.1/DTD/svg11.dtd">
<svg version="1.1" id="Layer_1" xmlns="http://www.w3.org/2000/svg" xmlns:xlink="http://www.w3.org/1999/xlink" x="0px" y="0px"
	 width="220px" height="220px" viewBox="146 146 220 220" enable-background="new 146 146 220 220" xml:space="preserve">
<g>
	<g>
		<path fill="#1D1D1B" d="M286.096,336.646l-7.734-4.458c0.233-1.343,0.412-2.712,0.412-4.136c0-1.423-0.179-2.793-0.43-4.135
			l7.752-4.468c3.617-2.112,4.853-6.759,2.775-10.356c-2.095-3.644-6.731-4.889-10.366-2.793l-7.815,4.512
			c-2.095-1.782-4.457-3.179-7.09-4.127v-8.979c0-4.199-3.41-7.601-7.6-7.601c-4.189,0-7.591,3.401-7.591,7.601v8.969
			c-2.632,0.94-5.004,2.354-7.099,4.137l-7.797-4.512c-3.643-2.096-8.29-0.859-10.384,2.783c-2.095,3.617-0.833,8.271,2.793,10.367
			l7.717,4.458c-0.251,1.352-0.412,2.722-0.412,4.145c0,1.424,0.161,2.793,0.412,4.136l-7.716,4.457
			c-3.635,2.096-4.888,6.768-2.793,10.394s6.741,4.86,10.366,2.767l7.806-4.485c2.094,1.772,4.467,3.169,7.108,4.108v8.997
			c0,4.189,3.401,7.573,7.591,7.573s7.6-3.384,7.6-7.573v-8.997c2.633-0.939,5.022-2.336,7.1-4.135l7.806,4.512
			c3.635,2.094,8.271,0.859,10.366-2.767S289.73,338.769,286.096,336.646z M256,335.653c-4.189,0-7.6-3.411-7.6-7.601
			s3.411-7.582,7.6-7.582s7.591,3.393,7.591,7.582S260.189,335.653,256,335.653z M317.875,173.5c-2.283,0-4.539,0.161-6.785,0.483
			C298.253,156.492,277.994,146,256,146c-21.995,0-42.244,10.492-55.089,27.983c-2.247-0.322-4.503-0.483-6.786-0.483
			c-26.533,0-48.125,21.592-48.125,48.125s21.592,48.125,48.125,48.125c5.881,0,11.638-1.074,17.062-3.151
			C223.63,277.448,239.457,283.5,256,283.5c16.561,0,32.37-6.052,44.812-16.901c5.425,2.077,11.182,3.151,17.062,3.151
			c26.533,0,48.125-21.592,48.125-48.125S344.408,173.5,317.875,173.5z M317.875,256c-7.358,0-14.144-2.363-19.738-6.302
			c-10.089,12.157-25.11,20.052-42.137,20.052s-32.048-7.896-42.136-20.052c-5.586,3.939-12.38,6.302-19.739,6.302
			c-18.987,0-34.375-15.388-34.375-34.375s15.388-34.375,34.375-34.375c4.646,0,9.05,0.949,13.079,2.614
			c9.122-17.796,27.437-30.114,48.796-30.114s39.675,12.318,48.787,30.114c4.037-1.665,8.451-2.614,13.088-2.614
			c18.986,0,34.375,15.388,34.375,34.375S336.861,256,317.875,256z"/>
	</g>
</g>
</svg>
