<?xml version="1.0" encoding="utf-8"?>
<!-- Generator: Adobe Illustrator 15.0.2, SVG Export Plug-In . SVG Version: 6.00 Build 0)  -->
<!DOCTYPE svg PUBLIC "-//W3C//DTD SVG 1.1//EN" "http://www.w3.org/Graphics/SVG/1.1/DTD/svg11.dtd">
<svg version="1.1" id="Layer_1" xmlns="http://www.w3.org/2000/svg" xmlns:xlink="http://www.w3.org/1999/xlink" x="0px" y="0px"
	 width="220px" height="152.308px" viewBox="161 195.846 220 152.308" enable-background="new 161 195.846 220 152.308"
	 xml:space="preserve">
<g>
	<g>
		<path fill="#1D1D1B" d="M355.615,229.692c-14.015,0-25.385,11.37-25.385,25.385c0,2.985,0.617,5.795,1.554,8.461H169.461
			c-4.671,0-8.461,3.791-8.461,8.462s3.79,8.462,8.461,8.462h186.154c14.015,0,25.385-11.37,25.385-25.385
			S369.63,229.692,355.615,229.692z M169.461,246.615H271c14.015,0,25.385-11.37,25.385-25.384c0-14.015-11.37-25.385-25.385-25.385
			s-25.385,11.37-25.385,25.385c0,2.986,0.617,5.795,1.554,8.461h-77.708c-4.671,0-8.461,3.79-8.461,8.461
			S164.79,246.615,169.461,246.615z M304.846,297.385c-0.495,0-0.97,0.109-1.476,0.153c-0.33-0.021-0.606-0.153-0.937-0.153H171.886
			c-6.016,0-10.886,3.79-10.886,8.461c0,4.672,4.87,8.462,10.886,8.462h109.129c-0.936,2.667-1.553,5.487-1.553,8.462
			c0,14.014,11.37,25.385,25.384,25.385c14.015,0,25.385-11.371,25.385-25.385C330.23,308.755,318.86,297.385,304.846,297.385z"/>
	</g>
</g>
</svg>
