<?xml version="1.0" encoding="utf-8"?>
<!-- Generator: Adobe Illustrator 15.0.2, SVG Export Plug-In . SVG Version: 6.00 Build 0)  -->
<!DOCTYPE svg PUBLIC "-//W3C//DTD SVG 1.1//EN" "http://www.w3.org/Graphics/SVG/1.1/DTD/svg11.dtd">
<svg version="1.1" id="Layer_1" xmlns="http://www.w3.org/2000/svg" xmlns:xlink="http://www.w3.org/1999/xlink" x="0px" y="0px"
	 width="220px" height="165px" viewBox="146 173.5 220 165" enable-background="new 146 173.5 220 165" xml:space="preserve">
<g>
	<g>
		<path fill="#1D1D1B" d="M160.439,256c-0.448-2.22-0.689-4.521-0.689-6.875c0-18.987,15.388-34.375,34.375-34.375
			c4.646,0,9.05,0.949,13.079,2.614c9.122-17.796,27.437-30.114,48.796-30.114s39.675,12.318,48.787,30.114
			c4.037-1.665,8.451-2.614,13.088-2.614c18.986,0,34.375,15.388,34.375,34.375c0,2.354-0.242,4.655-0.698,6.875h13.75
			c0.34-2.265,0.698-4.521,0.698-6.875C366,222.592,344.408,201,317.875,201c-2.283,0-4.539,0.161-6.785,0.483
			C298.253,183.992,277.994,173.5,256,173.5c-21.995,0-42.244,10.492-55.089,27.983c-2.247-0.322-4.503-0.483-6.786-0.483
			C167.592,201,146,222.592,146,249.125c0,2.354,0.367,4.61,0.698,6.875H160.439z M359.125,269.75h-206.25
			c-3.795,0-6.875,3.079-6.875,6.875s3.08,6.875,6.875,6.875h206.25c3.796,0,6.875-3.079,6.875-6.875S362.921,269.75,359.125,269.75
			z M359.125,297.25h-206.25c-3.795,0-6.875,3.079-6.875,6.875s3.08,6.875,6.875,6.875h206.25c3.796,0,6.875-3.079,6.875-6.875
			S362.921,297.25,359.125,297.25z M359.125,324.75h-206.25c-3.795,0-6.875,3.079-6.875,6.875s3.08,6.875,6.875,6.875h206.25
			c3.796,0,6.875-3.079,6.875-6.875S362.921,324.75,359.125,324.75z"/>
	</g>
</g>
</svg>
