<?xml version="1.0" encoding="utf-8"?>
<!-- Generator: Adobe Illustrator 15.0.2, SVG Export Plug-In . SVG Version: 6.00 Build 0)  -->
<!DOCTYPE svg PUBLIC "-//W3C//DTD SVG 1.1//EN" "http://www.w3.org/Graphics/SVG/1.1/DTD/svg11.dtd">
<svg version="1.1" id="Layer_1" xmlns="http://www.w3.org/2000/svg" xmlns:xlink="http://www.w3.org/1999/xlink" x="0px" y="0px"
	 width="220px" height="132px" viewBox="161 173 220 132" enable-background="new 161 173 220 132" xml:space="preserve">
<path fill="#1D1D1B" d="M373.667,231.667h-37.412C332.56,198.762,304.888,173,271,173c-22.831,0-42.969,11.668-54.828,29.333
	h-47.838c-4.049,0-7.333,3.285-7.333,7.333c0,4.049,3.285,7.333,7.333,7.333h40.715c-1.661,4.679-2.74,9.577-3.304,14.667H183
	c-4.048,0-7.333,3.285-7.333,7.333s3.285,7.333,7.333,7.333h22.745c0.563,5.08,1.643,9.997,3.304,14.667H169.67
	c-4.793,0-8.67,3.285-8.67,7.333c0,4.049,3.877,7.334,8.67,7.334h46.502C228.031,293.341,248.169,305,271,305
	s42.969-11.659,54.828-29.333h17.169c4.793,0,8.67-3.285,8.67-7.334c0-4.048-3.877-7.333-8.67-7.333h-10.046
	c1.661-4.669,2.731-9.586,3.304-14.667h37.412c4.048,0,7.333-3.285,7.333-7.333S377.715,231.667,373.667,231.667z M224.813,217H271
	c4.049,0,7.333-3.285,7.333-7.333c0-4.048-3.284-7.333-7.333-7.333h-35.817c9.262-9.042,21.875-14.667,35.817-14.667
	c25.8,0,46.998,19.193,50.589,44H220.412C221.156,226.482,222.627,221.564,224.813,217z M271,290.333
	c-13.941,0-26.555-5.633-35.817-14.666h71.625C297.555,284.7,284.941,290.333,271,290.333z M317.177,261h-92.363
	c-2.187-4.564-3.657-9.482-4.402-14.667h101.177C320.844,251.518,319.373,256.436,317.177,261z"/>
</svg>
