<?xml version="1.0" encoding="utf-8"?>
<!-- Generator: Adobe Illustrator 15.0.2, SVG Export Plug-In . SVG Version: 6.00 Build 0)  -->
<!DOCTYPE svg PUBLIC "-//W3C//DTD SVG 1.1//EN" "http://www.w3.org/Graphics/SVG/1.1/DTD/svg11.dtd">
<svg version="1.1" id="Layer_1" xmlns="http://www.w3.org/2000/svg" xmlns:xlink="http://www.w3.org/1999/xlink" x="0px" y="0px"
	 width="220px" height="110.591px" viewBox="146.001 200.705 220 110.591" enable-background="new 146.001 200.705 220 110.591"
	 xml:space="preserve">
<g>
	<g>
		<path fill="#1D1D1B" d="M325.198,217.364c-10.304-10.545-24.546-16.66-39.415-16.66c-14.852,0-29.085,6.114-39.387,16.66
			c-22.693,1.057-40.83,19.846-40.83,42.79c0,23.614,19.211,42.824,42.835,42.824c2.506,0,4.986-0.215,7.421-0.644
			c8.907,5.818,19.3,8.961,29.962,8.961c10.679,0,21.081-3.143,29.979-8.961c2.452,0.429,4.924,0.644,7.43,0.644
			c23.606,0,42.808-19.21,42.808-42.824C366,237.21,347.873,218.421,325.198,217.364z M323.192,289.229
			c-3.571,0-7.036-0.645-10.312-1.898c-7.52,6.553-17.08,10.215-27.097,10.215c-9.99,0-19.551-3.662-27.07-10.215
			c-3.276,1.254-6.767,1.898-10.312,1.898c-16.033,0-29.085-13.052-29.085-29.075c0-16.033,13.052-29.085,29.085-29.085
			c1.37,0,2.739,0.099,4.091,0.295c7.779-10.563,19.999-16.91,33.292-16.91s25.539,6.347,33.301,16.91
			c1.343-0.197,2.712-0.295,4.108-0.295c16.033,0,29.058,13.052,29.058,29.085C352.25,276.178,339.226,289.229,323.192,289.229z
			 M207.876,297.25h-55c-3.795,0-6.875,3.079-6.875,6.875c0,3.795,3.08,6.875,6.875,6.875h55c3.795,0,6.875-3.08,6.875-6.875
			C214.75,300.329,211.671,297.25,207.876,297.25z M152.876,283.5h27.5c3.795,0,6.875-3.079,6.875-6.875
			c0-3.795-3.08-6.875-6.875-6.875h-27.5c-3.795,0-6.875,3.08-6.875,6.875C146.001,280.421,149.081,283.5,152.876,283.5z
			 M166.626,256h27.5c3.795,0,6.875-3.08,6.875-6.875s-3.08-6.875-6.875-6.875h-27.5c-3.795,0-6.875,3.08-6.875,6.875
			S162.831,256,166.626,256z"/>
	</g>
</g>
</svg>
