<?xml version="1.0" encoding="utf-8"?>
<!-- Generator: Adobe Illustrator 15.0.2, SVG Export Plug-In . SVG Version: 6.00 Build 0)  -->
<!DOCTYPE svg PUBLIC "-//W3C//DTD SVG 1.1//EN" "http://www.w3.org/Graphics/SVG/1.1/DTD/svg11.dtd">
<svg version="1.1" id="Layer_1" xmlns="http://www.w3.org/2000/svg" xmlns:xlink="http://www.w3.org/1999/xlink" x="0px" y="0px"
	 width="220px" height="246.379px" viewBox="145.998 132.811 220 246.379" enable-background="new 145.998 132.811 220 246.379"
	 xml:space="preserve">
<path fill="#1D1D1B" d="M353.683,283.91l-25.119-14.501c0.803-4.362,1.348-8.822,1.348-13.409c0-4.604-0.545-9.079-1.38-13.441
	l25.119-14.517c11.806-6.833,15.816-21.896,9.03-33.637c-6.816-11.79-21.847-15.832-33.637-9.047l-25.359,14.645
	c-6.785-5.774-14.517-10.33-23.051-13.361v-29.194c0-13.603-11.019-24.638-24.638-24.638c-13.602,0-24.638,11.035-24.638,24.638
	v29.177c-8.533,3.032-16.265,7.588-23.05,13.362l-25.312-14.613c-11.79-6.801-26.868-2.775-33.684,9.015
	c-6.786,11.774-2.743,26.835,9.046,33.637l25.071,14.485c-0.817,4.379-1.348,8.871-1.348,13.49c0,4.587,0.53,9.062,1.348,13.427
	l-25.087,14.483c-11.806,6.802-15.848,21.896-9.031,33.685c6.784,11.741,21.862,15.783,33.669,8.999l25.279-14.612
	c6.785,5.774,14.532,10.361,23.098,13.409v29.16c0,13.618,11.037,24.638,24.638,24.638c13.618,0,24.638-11.02,24.638-24.638v-29.193
	c8.565-3.048,16.313-7.604,23.066-13.393l25.344,14.628c11.789,6.784,26.852,2.742,33.637-9
	C369.499,305.806,365.473,290.743,353.683,283.91z M231.359,256c0-13.603,11.02-24.638,24.638-24.638
	c13.603,0,24.638,11.035,24.638,24.638c0,13.602-11.035,24.638-24.638,24.638C242.379,280.638,231.359,269.602,231.359,256z"/>
</svg>
