<?xml version="1.0" encoding="utf-8"?>
<!-- Generator: Adobe Illustrator 15.0.2, SVG Export Plug-In . SVG Version: 6.00 Build 0)  -->
<!DOCTYPE svg PUBLIC "-//W3C//DTD SVG 1.1//EN" "http://www.w3.org/Graphics/SVG/1.1/DTD/svg11.dtd">
<svg version="1.1" id="Layer_1" xmlns="http://www.w3.org/2000/svg" xmlns:xlink="http://www.w3.org/1999/xlink" x="0px" y="0px"
	 width="220px" height="137.5px" viewBox="146 187.25 220 137.5" enable-background="new 146 187.25 220 137.5"
	 xml:space="preserve">
<path fill="#1D1D1B" d="M317.875,214.75c-2.283,0-4.539,0.161-6.785,0.483c-12.837-17.492-33.096-27.983-55.09-27.983
	c-21.995,0-42.244,10.492-55.089,27.983c-2.247-0.322-4.503-0.483-6.786-0.483c-26.533,0-48.125,21.592-48.125,48.125
	S167.592,311,194.125,311c5.881,0,11.638-1.074,17.062-3.151c12.442,10.85,28.27,16.901,44.812,16.901
	c16.561,0,32.37-6.052,44.812-16.901c5.425,2.077,11.182,3.151,17.062,3.151C344.408,311,366,289.408,366,262.875
	S344.408,214.75,317.875,214.75z M317.875,297.25c-7.358,0-14.144-2.363-19.738-6.302C288.048,303.104,273.026,311,256,311
	s-32.048-7.896-42.136-20.052c-5.586,3.938-12.38,6.302-19.739,6.302c-18.987,0-34.375-15.389-34.375-34.375
	c0-18.987,15.388-34.375,34.375-34.375c4.646,0,9.05,0.949,13.079,2.614C216.326,213.318,234.641,201,256,201
	s39.675,12.318,48.787,30.114c4.037-1.665,8.451-2.614,13.088-2.614c18.986,0,34.375,15.388,34.375,34.375
	C352.25,281.861,336.861,297.25,317.875,297.25z"/>
</svg>
