<?xml version="1.0" encoding="utf-8"?>
<!-- Generator: Adobe Illustrator 15.0.2, SVG Export Plug-In . SVG Version: 6.00 Build 0)  -->
<!DOCTYPE svg PUBLIC "-//W3C//DTD SVG 1.1//EN" "http://www.w3.org/Graphics/SVG/1.1/DTD/svg11.dtd">
<svg version="1.1" id="Layer_1" xmlns="http://www.w3.org/2000/svg" xmlns:xlink="http://www.w3.org/1999/xlink" x="0px" y="0px"
	 width="220px" height="203.325px" viewBox="145.999 173.741 220 203.325" enable-background="new 145.999 173.741 220 203.325"
	 xml:space="preserve">
<path fill="#FFFFFF" d="M332.94,269.716c2.095-1.558,4.216-3.089,6.114-4.986c5.675-5.685,9.999-12.604,12.801-20.562
	c0.895-2.489,0.26-5.282-1.621-7.144c-1.87-1.88-4.646-2.515-7.143-1.629c-15.209,5.371-31.663,1.719-42.924-9.561
	c-11.279-11.279-14.95-27.724-9.561-42.924c0.877-2.498,0.25-5.273-1.63-7.153c-1.861-1.862-4.646-2.506-7.144-1.629
	c-7.967,2.829-14.878,7.143-20.553,12.819c-14.413,14.395-18.898,34.805-13.957,53.192c-18.584,2.372-35.288,12.246-46.415,27.411
	c-2.247-0.322-4.503-0.483-6.786-0.483c-26.533,0-48.125,21.592-48.125,48.125s21.592,48.125,48.125,48.125
	c5.881,0,11.638-1.074,17.062-3.151c12.442,10.85,28.27,16.901,44.812,16.901c16.562,0,32.37-6.052,44.812-16.901
	c5.425,2.077,11.181,3.151,17.062,3.151c26.533,0,48.125-21.592,48.125-48.125C365.999,293.948,352.07,276.08,332.94,269.716z
	 M271.002,196.668c1.093-1.11,2.266-2.139,3.501-3.106c-0.967,15.459,4.61,30.669,15.942,41.993
	c11.334,11.333,26.543,16.901,42.003,15.943c-5.927,7.555-14.091,12.255-22.827,14.26c-11.764-14.932-29.049-24.331-48.107-25.861
	C256.241,225.306,259.329,208.342,271.002,196.668z M317.874,349.566c-7.358,0-14.144-2.363-19.738-6.303
	c-10.089,12.157-25.11,20.053-42.136,20.053c-17.026,0-32.048-7.896-42.136-20.053c-5.586,3.939-12.38,6.303-19.739,6.303
	c-18.987,0-34.375-15.389-34.375-34.375s15.388-34.375,34.375-34.375c4.646,0,9.05,0.94,13.079,2.604
	c8.675-16.91,25.674-28.744,45.681-29.881c1.047-0.062,2.067-0.224,3.115-0.224c5.549,0,10.876,0.869,15.898,2.399
	c6.786,2.077,12.972,5.46,18.343,9.82c5.13,4.162,9.427,9.265,12.81,14.994c0.573,0.967,1.218,1.88,1.737,2.891
	c4.037-1.665,8.45-2.604,13.087-2.604c18.987,0,34.375,15.388,34.375,34.375S336.861,349.566,317.874,349.566z"/>
</svg>
