<?xml version="1.0" encoding="utf-8"?>
<!-- Generator: Adobe Illustrator 15.0.2, SVG Export Plug-In . SVG Version: 6.00 Build 0)  -->
<!DOCTYPE svg PUBLIC "-//W3C//DTD SVG 1.1//EN" "http://www.w3.org/Graphics/SVG/1.1/DTD/svg11.dtd">
<svg version="1.1" id="Layer_1" xmlns="http://www.w3.org/2000/svg" xmlns:xlink="http://www.w3.org/1999/xlink" x="0px" y="0px"
	 width="220px" height="220px" viewBox="146 146 220 220" enable-background="new 146 146 220 220" xml:space="preserve">
<path fill="#1D1D1B" d="M366,203.936c0-21.117-17.188-38.295-38.313-38.295c-1.03,0-2.05,0.036-3.071,0.116
	C314.68,153.367,299.703,146,283.5,146c-16.193,0-31.179,7.367-41.116,19.757c-1.021-0.081-2.05-0.116-3.089-0.116
	c-21.108,0-38.295,17.178-38.295,38.295c0,2.211,0.295,4.351,0.645,6.463c-0.233,0.304-0.51,0.582-0.734,0.895
	c-2.247-0.322-4.503-0.483-6.786-0.483c-26.533,0-48.125,21.592-48.125,48.125c0,26.533,21.592,48.125,48.125,48.125
	c5.881,0,11.638-1.074,17.062-3.151c7.886,6.875,17.232,11.574,27.159,14.27l-9.847,6.57l13.75,13.75L228.5,366l41.25-27.5
	L256,324.75l2.068-4.118c15.791-0.483,30.83-6.329,42.744-16.722c5.425,2.077,11.182,3.151,17.062,3.151
	c26.533,0,48.125-21.592,48.125-48.125c0-11.029-3.885-21.091-10.169-29.219C362.097,222.896,366,213.899,366,203.936z"/>
</svg>
