<?xml version="1.0" encoding="utf-8"?>
<!-- Generator: Adobe Illustrator 15.0.2, SVG Export Plug-In . SVG Version: 6.00 Build 0)  -->
<!DOCTYPE svg PUBLIC "-//W3C//DTD SVG 1.1//EN" "http://www.w3.org/Graphics/SVG/1.1/DTD/svg11.dtd">
<svg version="1.1" id="Layer_1" xmlns="http://www.w3.org/2000/svg" xmlns:xlink="http://www.w3.org/1999/xlink" x="0px" y="0px"
	 width="220px" height="220.004px" viewBox="146 145.998 220 220.004" enable-background="new 146 145.998 220 220.004"
	 xml:space="preserve">
<path fill="#FFFFFF" d="M338.864,332.947c-44.036,44.072-115.736,44.072-159.81,0c-44.072-44.074-44.072-115.774,0-159.829
	c11.663-11.643,25.88-20.528,42.232-26.322c5.151-1.803,10.854-0.496,14.679,3.348c3.863,3.863,5.169,9.564,3.349,14.679
	c-11.074,31.233-3.532,65.042,19.645,88.219c23.141,23.157,56.949,30.682,88.219,19.645c5.115-1.82,10.835-0.514,14.679,3.349
	c3.864,3.825,5.151,9.546,3.33,14.679C359.429,307.066,350.526,321.285,338.864,332.947z M199.031,193.095
	c-33.055,33.055-33.055,86.839,0,119.877c35.317,35.335,95.466,32.153,126.258-7.211c-31.749,1.986-63.019-9.474-86.306-32.744
	c-23.287-23.268-34.728-54.539-32.742-86.287C203.704,188.717,201.293,190.833,199.031,193.095z"/>
</svg>
