<?xml version="1.0" encoding="utf-8"?>
<!-- Generator: Adobe Illustrator 15.0.2, SVG Export Plug-In . SVG Version: 6.00 Build 0)  -->
<!DOCTYPE svg PUBLIC "-//W3C//DTD SVG 1.1//EN" "http://www.w3.org/Graphics/SVG/1.1/DTD/svg11.dtd">
<svg version="1.1" id="Layer_1" xmlns="http://www.w3.org/2000/svg" xmlns:xlink="http://www.w3.org/1999/xlink" x="0px" y="0px"
	 width="220px" height="220px" viewBox="146 146 220 220" enable-background="new 146 146 220 220" xml:space="preserve">
<g>
	<g>
		<path fill="#1D1D1B" d="M235.375,173.5c3.795,0,6.875-3.08,6.875-6.875v-13.75c0-3.795-3.08-6.875-6.875-6.875
			s-6.875,3.08-6.875,6.875v13.75C228.5,170.42,231.58,173.5,235.375,173.5z M288.844,191.619l9.723-9.722
			c2.686-2.686,2.686-7.036,0-9.722s-7.037-2.686-9.723,0l-9.721,9.722c-2.686,2.686-2.686,7.036,0,9.722
			S286.158,194.304,288.844,191.619z M152.875,242.25h13.75c3.795,0,6.875-3.08,6.875-6.875s-3.08-6.875-6.875-6.875h-13.75
			c-3.795,0-6.875,3.08-6.875,6.875S149.08,242.25,152.875,242.25z M297.25,235.375c0,3.795,3.079,6.875,6.875,6.875h13.75
			c3.796,0,6.875-3.08,6.875-6.875s-3.079-6.875-6.875-6.875h-13.75C300.329,228.5,297.25,231.58,297.25,235.375z M181.896,191.619
			c2.686,2.686,7.037,2.686,9.722,0c2.686-2.686,2.686-7.036,0-9.722l-9.722-9.722c-2.686-2.686-7.036-2.686-9.722,0
			c-2.686,2.686-2.686,7.036,0,9.722L181.896,191.619z M317.875,256c-2.283,0-4.539,0.161-6.785,0.483
			c-7.207-9.829-16.812-17.331-27.697-22.129c-0.555-26.05-21.834-47.104-48.018-47.104c-26.533,0-48.125,21.592-48.125,48.125
			c0,7.493,1.862,14.502,4.941,20.813C166.571,257.235,146,278.264,146,304.125c0,26.533,21.592,48.125,48.125,48.125
			c5.881,0,11.638-1.074,17.062-3.151C223.63,359.948,239.457,366,256,366c16.561,0,32.37-6.052,44.812-16.901
			c5.425,2.077,11.182,3.151,17.062,3.151c26.533,0,48.125-21.592,48.125-48.125S344.408,256,317.875,256z M235.375,201
			c17.107,0,31.18,12.533,33.82,28.896c-4.307-0.859-8.701-1.396-13.195-1.396c-19.739,0-38.027,8.513-50.864,22.881
			c-2.551-4.798-4.136-10.187-4.136-16.006C201,216.388,216.388,201,235.375,201z M317.875,338.5
			c-7.358,0-14.144-2.363-19.738-6.302c-10.089,12.156-25.11,20.052-42.137,20.052s-32.048-7.896-42.136-20.052
			c-5.586,3.938-12.38,6.302-19.739,6.302c-18.987,0-34.375-15.389-34.375-34.375s15.388-34.375,34.375-34.375
			c3.33,0,6.472,0.627,9.507,1.521c1.208,0.341,2.435,0.609,3.572,1.084c1.88-3.68,4.243-7.046,6.866-10.205
			c10.044-12.085,24.985-19.9,41.931-19.9c4.351,0,8.522,0.626,12.568,1.594c4.539,1.074,8.826,2.703,12.819,4.852
			c10.008,5.317,18.226,13.553,23.399,23.66c4.037-1.666,8.451-2.605,13.088-2.605c18.986,0,34.375,15.389,34.375,34.375
			S336.861,338.5,317.875,338.5z"/>
	</g>
</g>
</svg>
