<?xml version="1.0" encoding="utf-8"?>
<!-- Generator: Adobe Illustrator 15.0.2, SVG Export Plug-In . SVG Version: 6.00 Build 0)  -->
<!DOCTYPE svg PUBLIC "-//W3C//DTD SVG 1.1//EN" "http://www.w3.org/Graphics/SVG/1.1/DTD/svg11.dtd">
<svg version="1.1" id="Layer_1" xmlns="http://www.w3.org/2000/svg" xmlns:xlink="http://www.w3.org/1999/xlink" x="0px" y="0px"
	 width="220px" height="220px" viewBox="0 0 220 220" enable-background="new 0 0 220 220" xml:space="preserve">
<g>
	<g>
		<path fill="#1D1D1B" d="M171.875,27.5c-2.283,0-4.539,0.161-6.785,0.482C152.254,10.492,131.994,0,110,0
			C88.005,0,67.756,10.492,54.912,27.982c-2.247-0.321-4.503-0.482-6.786-0.482C21.592,27.5,0,49.092,0,75.625
			s21.592,48.125,48.125,48.125c5.881,0,11.639-1.074,17.062-3.15c12.442,10.849,28.27,16.9,44.812,16.9
			c16.56,0,32.371-6.052,44.812-16.9c5.424,2.076,11.182,3.15,17.062,3.15c26.533,0,48.125-21.592,48.125-48.125
			S198.408,27.5,171.875,27.5z M171.875,110c-7.357,0-14.145-2.363-19.738-6.302C142.049,115.855,127.027,123.75,110,123.75
			c-17.027,0-32.048-7.896-42.136-20.052C62.278,107.637,55.485,110,48.125,110C29.139,110,13.75,94.611,13.75,75.625
			S29.139,41.25,48.125,41.25c4.646,0,9.05,0.949,13.079,2.614C70.327,26.068,88.641,13.75,110,13.75
			c21.359,0,39.675,12.318,48.787,30.114c4.037-1.665,8.451-2.614,13.088-2.614c18.986,0,34.375,15.389,34.375,34.375
			S190.861,110,171.875,110z M96.68,206.25c0,7.6,6.15,13.75,13.75,13.75c7.599,0,13.75-6.15,13.75-13.75s-13.75-27.5-13.75-27.5
			S96.68,198.65,96.68,206.25z M151.25,192.5c0,7.6,6.15,13.75,13.75,13.75s13.75-6.15,13.75-13.75S165,165,165,165
			S151.25,184.9,151.25,192.5z M41.25,165c0,7.6,6.15,13.75,13.75,13.75S68.75,172.6,68.75,165S55,137.5,55,137.5
			S41.25,157.4,41.25,165z"/>
	</g>
</g>
<circle fill="#1D1D1B" cx="134" cy="157" r="10.5"/>
<circle fill="#1D1D1B" cx="28.5" cy="192.5" r="12"/>
<circle fill="#1D1D1B" cx="194" cy="137" r="7.5"/>
</svg>
