<?xml version="1.0" encoding="utf-8"?>
<!-- Generator: Adobe Illustrator 15.0.2, SVG Export Plug-In . SVG Version: 6.00 Build 0)  -->
<!DOCTYPE svg PUBLIC "-//W3C//DTD SVG 1.1//EN" "http://www.w3.org/Graphics/SVG/1.1/DTD/svg11.dtd">
<svg version="1.1" id="Layer_1" xmlns="http://www.w3.org/2000/svg" xmlns:xlink="http://www.w3.org/1999/xlink" x="0px" y="0px"
	 width="220px" height="220px" viewBox="146 146 220 220" enable-background="new 146 146 220 220" xml:space="preserve">
<g>
	<g>
		<path fill="#1D1D1B" d="M256,196.769c-32.656,0-59.231,26.575-59.231,59.231s26.575,59.23,59.231,59.23s59.23-26.574,59.23-59.23
			S288.656,196.769,256,196.769z M256,298.308c-23.369,0-42.308-18.939-42.308-42.308c0-23.369,18.939-42.308,42.308-42.308
			c23.368,0,42.308,18.939,42.308,42.308C298.308,279.368,279.368,298.308,256,298.308z M256,179.846
			c4.671,0,8.462-3.79,8.462-8.461v-16.923c0-4.671-3.791-8.461-8.462-8.461c-4.671,0-8.461,3.79-8.461,8.461v16.923
			C247.539,176.056,251.329,179.846,256,179.846z M256,332.154c-4.671,0-8.461,3.79-8.461,8.461v16.923
			c0,4.672,3.79,8.462,8.461,8.462c4.671,0,8.462-3.79,8.462-8.462v-16.923C264.462,335.944,260.671,332.154,256,332.154z
			 M321.809,202.146l11.965-11.965c3.306-3.305,3.306-8.66,0-11.965s-8.66-3.305-11.965,0l-11.966,11.965
			c-3.305,3.306-3.305,8.66,0,11.965C313.148,205.451,318.503,205.451,321.809,202.146z M190.191,309.854l-11.965,11.965
			c-3.305,3.305-3.305,8.659,0,11.965c3.306,3.306,8.66,3.306,11.965,0l11.965-11.965c3.305-3.315,3.305-8.66,0-11.965
			C198.852,306.549,193.497,306.538,190.191,309.854z M179.846,256c0-4.671-3.79-8.461-8.461-8.461h-16.923
			c-4.671,0-8.461,3.79-8.461,8.461c0,4.671,3.79,8.462,8.461,8.462h16.923C176.056,264.462,179.846,260.671,179.846,256z
			 M357.538,247.539h-16.923c-4.671,0-8.461,3.79-8.461,8.461c0,4.671,3.79,8.462,8.461,8.462h16.923
			c4.672,0,8.462-3.791,8.462-8.462C366,251.329,362.21,247.539,357.538,247.539z M190.18,202.146c3.306,3.305,8.661,3.305,11.965,0
			c3.306-3.305,3.306-8.66,0-11.965l-11.965-11.965c-3.305-3.305-8.659-3.305-11.965,0c-3.305,3.305-3.305,8.66,0,11.965
			L190.18,202.146z M321.819,309.843c-3.316-3.305-8.66-3.305-11.965,0c-3.306,3.306-3.316,8.66,0,11.966l11.965,11.965
			c3.305,3.306,8.659,3.306,11.965,0s3.306-8.659,0-11.965L321.819,309.843z"/>
	</g>
</g>
</svg>
