<?xml version="1.0" encoding="utf-8"?>
<!-- Generator: Adobe Illustrator 15.0.2, SVG Export Plug-In . SVG Version: 6.00 Build 0)  -->
<!DOCTYPE svg PUBLIC "-//W3C//DTD SVG 1.1//EN" "http://www.w3.org/Graphics/SVG/1.1/DTD/svg11.dtd">
<svg version="1.1" id="Layer_1" xmlns="http://www.w3.org/2000/svg" xmlns:xlink="http://www.w3.org/1999/xlink" x="0px" y="0px"
	 width="220px" height="220px" viewBox="146 146 220 220" enable-background="new 146 146 220 220" xml:space="preserve">
<g>
	<g>
		<path fill="#1D1D1B" d="M286.096,336.646l-7.734-4.458c0.233-1.343,0.412-2.712,0.412-4.136c0-1.423-0.179-2.793-0.43-4.135
			l7.752-4.468c3.617-2.112,4.853-6.759,2.775-10.356c-2.095-3.644-6.731-4.889-10.366-2.793l-7.815,4.512
			c-2.095-1.782-4.457-3.179-7.09-4.127v-8.979c0-4.199-3.41-7.601-7.6-7.601c-4.189,0-7.591,3.401-7.591,7.601v8.969
			c-2.632,0.94-5.004,2.354-7.099,4.137l-7.797-4.512c-3.643-2.096-8.29-0.859-10.384,2.783c-2.095,3.617-0.833,8.271,2.793,10.367
			l7.717,4.458c-0.251,1.352-0.412,2.722-0.412,4.145c0,1.424,0.161,2.793,0.412,4.136l-7.716,4.457
			c-3.635,2.096-4.888,6.768-2.793,10.394s6.741,4.86,10.366,2.767l7.806-4.485c2.094,1.772,4.467,3.169,7.108,4.108v8.997
			c0,4.189,3.401,7.573,7.591,7.573s7.6-3.384,7.6-7.573v-8.997c2.633-0.939,5.022-2.336,7.1-4.135l7.806,4.512
			c3.635,2.094,8.271,0.859,10.366-2.767S289.73,338.769,286.096,336.646z M256,335.653c-4.189,0-7.6-3.411-7.6-7.601
			s3.411-7.582,7.6-7.582s7.591,3.393,7.591,7.582S260.189,335.653,256,335.653z M349.743,316.264l-5.191-1.379
			c-0.126-1.646-0.52-3.213-1.245-4.717l3.77-3.77c1.772-1.772,1.764-4.637,0-6.383c-1.755-1.763-4.602-1.771-6.374,0l-3.777,3.76
			c-1.486-0.697-3.071-1.101-4.709-1.234l-1.379-5.184c-0.645-2.398-3.115-3.84-5.532-3.195c-2.408,0.653-3.813,3.124-3.187,5.531
			l1.379,5.112c-0.681,0.466-1.325,0.984-1.934,1.575c-0.591,0.609-1.093,1.253-1.558,1.916l-5.111-1.379
			c-2.408-0.644-4.897,0.807-5.542,3.196c-0.645,2.417,0.806,4.879,3.188,5.532l5.156,1.388c0.143,1.62,0.555,3.204,1.28,4.709
			l-3.787,3.786c-1.755,1.764-1.746,4.61,0.018,6.364c1.755,1.755,4.602,1.772,6.356,0.019l3.795-3.796
			c1.486,0.733,3.08,1.146,4.727,1.271l1.361,5.166c0.662,2.407,3.115,3.84,5.532,3.195c2.398-0.645,3.849-3.114,3.204-5.55
			l-1.378-5.112c0.645-0.456,1.307-0.967,1.915-1.557c0.591-0.601,1.093-1.263,1.558-1.925l5.121,1.379
			c2.408,0.645,4.888-0.797,5.523-3.188C353.566,319.396,352.143,316.926,349.743,316.264z M334.338,319.137
			c-1.773,1.773-4.629,1.764-6.393,0c-1.745-1.745-1.763-4.609,0-6.382c1.764-1.755,4.629-1.755,6.393,0
			C336.083,314.518,336.083,317.392,334.338,319.137z M197.106,293.168l-5.103,1.369c-0.474-0.645-0.967-1.298-1.566-1.906
			c-0.608-0.591-1.253-1.102-1.925-1.558l1.37-5.13c0.645-2.407-0.788-4.887-3.169-5.522c-2.417-0.645-4.888,0.787-5.532,3.187
			l-1.396,5.184c-1.638,0.134-3.205,0.537-4.7,1.244l-3.786-3.77c-1.772-1.771-4.619-1.763-6.374,0
			c-1.764,1.764-1.764,4.619,0,6.383l3.769,3.77c-0.707,1.504-1.119,3.088-1.244,4.717l-5.174,1.379
			c-2.417,0.662-3.85,3.115-3.205,5.532c0.653,2.398,3.124,3.813,5.541,3.187l5.103-1.388c0.457,0.689,0.967,1.334,1.585,1.935
			c0.591,0.59,1.235,1.118,1.907,1.557l-1.37,5.112c-0.645,2.417,0.788,4.905,3.187,5.55c2.417,0.645,4.87-0.788,5.515-3.195
			l1.396-5.156c1.638-0.135,3.223-0.547,4.727-1.263l3.777,3.777c1.755,1.772,4.602,1.736,6.374-0.018
			c1.745-1.745,1.772-4.602,0-6.364l-3.787-3.787c0.726-1.486,1.155-3.088,1.263-4.727l5.183-1.37
			c2.39-0.653,3.823-3.115,3.178-5.532C202.003,293.974,199.532,292.541,197.106,293.168z M184.054,305.396
			c-1.764,1.764-4.619,1.764-6.392,0c-1.746-1.755-1.746-4.629,0-6.374c1.772-1.755,4.628-1.755,6.392,0
			C185.817,300.777,185.8,303.642,184.054,305.396z M366,221.625c0-26.533-21.592-48.125-48.125-48.125
			c-2.283,0-4.539,0.161-6.785,0.483C298.253,156.492,277.994,146,256,146c-21.995,0-42.244,10.492-55.089,27.983
			c-2.247-0.322-4.503-0.483-6.786-0.483c-26.533,0-48.125,21.592-48.125,48.125s21.592,48.125,48.125,48.125
			c5.881,0,11.638-1.074,17.062-3.151C223.63,277.448,239.457,283.5,256,283.5c16.561,0,32.37-6.052,44.812-16.901
			c5.425,2.077,11.182,3.151,17.062,3.151C344.408,269.75,366,248.158,366,221.625z M298.137,249.698
			c-10.089,12.157-25.11,20.052-42.137,20.052s-32.048-7.896-42.136-20.052c-5.586,3.939-12.38,6.302-19.739,6.302
			c-18.987,0-34.375-15.388-34.375-34.375s15.388-34.375,34.375-34.375c4.646,0,9.05,0.949,13.079,2.614
			c9.122-17.796,27.437-30.114,48.796-30.114s39.675,12.318,48.787,30.114c4.037-1.665,8.451-2.614,13.088-2.614
			c18.986,0,34.375,15.388,34.375,34.375S336.861,256,317.875,256C310.517,256,303.731,253.637,298.137,249.698z"/>
	</g>
</g>
</svg>
