<?xml version="1.0" encoding="utf-8"?>
<!-- Generator: Adobe Illustrator 15.0.2, SVG Export Plug-In . SVG Version: 6.00 Build 0)  -->
<!DOCTYPE svg PUBLIC "-//W3C//DTD SVG 1.1//EN" "http://www.w3.org/Graphics/SVG/1.1/DTD/svg11.dtd">
<svg version="1.1" id="Layer_1" xmlns="http://www.w3.org/2000/svg" xmlns:xlink="http://www.w3.org/1999/xlink" x="0px" y="0px"
	 width="220px" height="206.25px" viewBox="146 136.875 220 206.25" enable-background="new 146 136.875 220 206.25"
	 xml:space="preserve">
<path fill="#1D1D1B" d="M317.875,164.375c-2.283,0-4.539,0.161-6.785,0.483c-12.837-17.492-33.096-27.983-55.09-27.983
	c-21.995,0-42.244,10.492-55.089,27.983c-2.247-0.322-4.503-0.483-6.786-0.483c-26.533,0-48.125,21.592-48.125,48.125
	s21.592,48.125,48.125,48.125c5.881,0,11.638-1.074,17.062-3.151c9.256,8.065,20.374,13.446,32.271,15.692L228.5,288.125
	l13.75,13.75l-13.75,41.25l41.25-41.25L256,288.125l4.727-14.18c14.807-1.047,28.843-6.678,40.086-16.472
	c5.425,2.077,11.182,3.151,17.062,3.151c26.533,0,48.125-21.592,48.125-48.125S344.408,164.375,317.875,164.375z M317.875,246.875
	c-7.358,0-14.144-2.363-19.738-6.302c-8.138,9.811-19.578,16.597-32.604,18.951L256,260.625c-17.026,0-32.048-7.896-42.136-20.052
	c-5.586,3.939-12.38,6.302-19.739,6.302c-18.987,0-34.375-15.388-34.375-34.375s15.388-34.375,34.375-34.375
	c4.646,0,9.05,0.949,13.079,2.614c9.122-17.796,27.437-30.114,48.796-30.114s39.675,12.318,48.787,30.114
	c4.037-1.665,8.451-2.614,13.088-2.614c18.986,0,34.375,15.388,34.375,34.375S336.861,246.875,317.875,246.875z"/>
</svg>
