<?xml version="1.0" encoding="utf-8"?>
<!-- Generator: Adobe Illustrator 15.0.2, SVG Export Plug-In . SVG Version: 6.00 Build 0)  -->
<!DOCTYPE svg PUBLIC "-//W3C//DTD SVG 1.1//EN" "http://www.w3.org/Graphics/SVG/1.1/DTD/svg11.dtd">
<svg version="1.1" id="Layer_1" xmlns="http://www.w3.org/2000/svg" xmlns:xlink="http://www.w3.org/1999/xlink" x="0px" y="0px"
	 width="220px" height="105.784px" viewBox="146 203.108 220 105.784" enable-background="new 146 203.108 220 105.784"
	 xml:space="preserve">
<g>
	<g>
		<path fill="#1D1D1B" d="M203.787,268.202h-0.562l-18.061-27.581l-22.058-32.563H146V303.1h18.892v-59.863h0.819l15.681,24
			L205.47,303.1h17.208v-95.042h-18.892V268.202z M229.312,308.892h13.919l34.91-105.784h-14.076L229.312,308.892z M332.896,208.058
			H313.59L280.196,303.1h20.138l6.207-19.599h33.114l5.791,19.599H366L332.896,208.058z M311.648,267.651l3.85-12.549l7.33-24.694
			h0.539l7.464,25.11l3.716,12.135L311.648,267.651L311.648,267.651z"/>
	</g>
</g>
</svg>
