<?xml version="1.0" encoding="utf-8"?>
<!-- Generator: Adobe Illustrator 15.0.2, SVG Export Plug-In . SVG Version: 6.00 Build 0)  -->
<!DOCTYPE svg PUBLIC "-//W3C//DTD SVG 1.1//EN" "http://www.w3.org/Graphics/SVG/1.1/DTD/svg11.dtd">
<svg version="1.1" id="Layer_1" xmlns="http://www.w3.org/2000/svg" xmlns:xlink="http://www.w3.org/1999/xlink" x="0px" y="0px"
	 width="220px" height="211.439px" viewBox="146 140.319 220 211.439" enable-background="new 146 140.319 220 211.439"
	 xml:space="preserve">
<g>
	<g>
		<g>
			<path fill="#1D1D1B" d="M197.106,287.487l-5.103,1.369c-0.474-0.645-0.967-1.298-1.566-1.906
				c-0.608-0.591-1.253-1.102-1.925-1.558l1.37-5.13c0.645-2.408-0.788-4.888-3.169-5.523c-2.417-0.645-4.888,0.788-5.532,3.188
				l-1.396,5.183c-1.638,0.134-3.205,0.537-4.7,1.244l-3.786-3.769c-1.772-1.772-4.619-1.764-6.374,0
				c-1.764,1.764-1.764,4.619,0,6.383l3.769,3.769c-0.707,1.504-1.119,3.089-1.244,4.718l-5.174,1.378
				c-2.417,0.663-3.85,3.115-3.205,5.532c0.653,2.399,3.124,3.813,5.541,3.188l5.103-1.389c0.457,0.689,0.967,1.335,1.585,1.935
				c0.591,0.591,1.235,1.119,1.907,1.558l-1.37,5.111c-0.645,2.417,0.788,4.906,3.187,5.551c2.417,0.645,4.87-0.788,5.515-3.196
				l1.396-5.156c1.638-0.134,3.223-0.546,4.727-1.263l3.777,3.778c1.755,1.771,4.602,1.736,6.374-0.019
				c1.745-1.745,1.772-4.601,0-6.364l-3.787-3.786c0.726-1.487,1.155-3.089,1.263-4.728l5.183-1.37
				c2.39-0.653,3.823-3.115,3.178-5.532C202.003,288.293,199.532,286.86,197.106,287.487z M184.054,299.715
				c-1.764,1.764-4.619,1.764-6.392,0c-1.746-1.754-1.746-4.628,0-6.373c1.772-1.755,4.628-1.755,6.392,0
				C185.817,295.096,185.8,297.961,184.054,299.715z M366,215.944c0-26.533-21.592-48.125-48.125-48.125
				c-2.283,0-4.539,0.161-6.785,0.483c-12.837-17.492-33.096-27.983-55.09-27.983c-21.995,0-42.244,10.492-55.089,27.983
				c-2.247-0.322-4.503-0.483-6.786-0.483c-26.533,0-48.125,21.592-48.125,48.125s21.592,48.125,48.125,48.125
				c5.881,0,11.638-1.074,17.062-3.151c12.442,10.85,28.27,16.901,44.812,16.901c16.561,0,32.37-6.052,44.812-16.901
				c5.425,2.077,11.182,3.151,17.062,3.151C344.408,264.069,366,242.478,366,215.944z M298.137,244.017
				c-10.089,12.157-25.11,20.052-42.137,20.052s-32.048-7.896-42.136-20.052c-5.586,3.939-12.38,6.302-19.739,6.302
				c-18.987,0-34.375-15.388-34.375-34.375c0-18.987,15.388-34.375,34.375-34.375c4.646,0,9.05,0.949,13.079,2.614
				c9.122-17.796,27.437-30.114,48.796-30.114s39.675,12.318,48.787,30.114c4.037-1.665,8.451-2.614,13.088-2.614
				c18.986,0,34.375,15.388,34.375,34.375c0,18.987-15.389,34.375-34.375,34.375C310.517,250.319,303.731,247.956,298.137,244.017z"
				/>
		</g>
	</g>
	<path fill="#1D1D1B" d="M310.141,301.882c0,7.6,6.15,13.75,13.75,13.75s13.75-6.15,13.75-13.75c0-7.601-13.75-27.5-13.75-27.5
		S310.141,294.281,310.141,301.882z"/>
	<path fill="#1D1D1B" d="M298.238,330.12l-5.192-1.379c-0.125-1.647-0.519-3.214-1.244-4.718l3.769-3.769
		c1.772-1.772,1.764-4.638,0-6.383c-1.754-1.764-4.601-1.772-6.373,0l-3.777,3.76c-1.486-0.698-3.071-1.101-4.709-1.235
		l-1.379-5.183c-0.645-2.399-3.115-3.841-5.532-3.196c-2.408,0.653-3.813,3.124-3.187,5.532l1.379,5.111
		c-0.681,0.466-1.325,0.985-1.934,1.576c-0.591,0.608-1.093,1.253-1.559,1.916l-5.111-1.379c-2.408-0.645-4.896,0.806-5.541,3.196
		c-0.645,2.417,0.806,4.878,3.187,5.532l5.156,1.388c0.144,1.62,0.556,3.204,1.28,4.709l-3.786,3.786
		c-1.755,1.763-1.746,4.61,0.018,6.364c1.755,1.755,4.602,1.772,6.356,0.018l3.795-3.795c1.486,0.733,3.08,1.146,4.727,1.271
		l1.36,5.165c0.663,2.408,3.115,3.841,5.533,3.196c2.398-0.645,3.849-3.114,3.204-5.55l-1.379-5.112
		c0.645-0.456,1.308-0.967,1.916-1.558c0.591-0.6,1.093-1.262,1.558-1.924l5.12,1.379c2.408,0.645,4.888-0.797,5.523-3.188
		C302.061,333.253,300.638,330.782,298.238,330.12z M282.832,332.997c-1.772,1.772-4.629,1.764-6.392,0
		c-1.746-1.745-1.764-4.609,0-6.382c1.763-1.755,4.628-1.755,6.392,0C284.577,328.378,284.577,331.252,282.832,332.997z"/>
	<path fill="#1D1D1B" d="M215.18,315.202c0,7.6,6.15,13.75,13.75,13.75s13.75-6.15,13.75-13.75c0-7.601-13.75-27.5-13.75-27.5
		S215.18,307.602,215.18,315.202z"/>
</g>
</svg>
