<?xml version="1.0" encoding="utf-8"?>
<!-- Generator: Adobe Illustrator 15.0.2, SVG Export Plug-In . SVG Version: 6.00 Build 0)  -->
<!DOCTYPE svg PUBLIC "-//W3C//DTD SVG 1.1//EN" "http://www.w3.org/Graphics/SVG/1.1/DTD/svg11.dtd">
<svg version="1.1" id="Layer_1" xmlns="http://www.w3.org/2000/svg" xmlns:xlink="http://www.w3.org/1999/xlink" x="0px" y="0px"
	 width="220px" height="220px" viewBox="146 146 220 220" enable-background="new 146 146 220 220" xml:space="preserve">
<g>
	<g>
		<path fill="#1D1D1B" d="M317.875,173.5c-2.283,0-4.539,0.161-6.785,0.483C298.253,156.492,277.994,146,256,146
			c-21.995,0-42.244,10.492-55.089,27.983c-2.247-0.322-4.503-0.483-6.786-0.483c-26.533,0-48.125,21.592-48.125,48.125
			s21.592,48.125,48.125,48.125c5.881,0,11.638-1.074,17.062-3.151C223.63,277.448,239.457,283.5,256,283.5
			c16.561,0,32.37-6.052,44.812-16.901c5.425,2.077,11.182,3.151,17.062,3.151c26.533,0,48.125-21.592,48.125-48.125
			S344.408,173.5,317.875,173.5z M317.875,256c-4.172,0-8.254-0.752-12.139-2.238l-7.734-2.972l-6.23,5.443
			c-9.99,8.719-22.693,13.517-35.771,13.517c-13.079,0-25.781-4.798-35.771-13.517l-6.23-5.443l-7.734,2.972
			c-3.867,1.486-7.967,2.238-12.139,2.238c-18.96,0-34.375-15.424-34.375-34.375s15.415-34.375,34.375-34.375
			c1.629,0,3.223,0.116,4.834,0.34l8.146,1.182l4.879-6.642c10.447-14.225,26.489-22.38,44.016-22.38
			c17.537,0,33.569,8.146,44.007,22.371l4.888,6.651l8.164-1.182c1.594-0.224,3.188-0.34,4.816-0.34
			c18.96,0,34.375,15.424,34.375,34.375S336.835,256,317.875,256z M187.25,283.5c-7.6,0-13.75,6.15-13.75,13.75
			S179.65,311,187.25,311S201,304.85,201,297.25S194.85,283.5,187.25,283.5z M256,297.25c-7.6,0-13.75,6.15-13.75,13.75
			s6.15,13.75,13.75,13.75c7.6,0,13.75-6.15,13.75-13.75S263.6,297.25,256,297.25z M324.75,283.5c-7.6,0-13.75,6.15-13.75,13.75
			S317.15,311,324.75,311s13.75-6.15,13.75-13.75S332.35,283.5,324.75,283.5z M297.25,338.5c-7.6,0-13.75,6.15-13.75,13.75
			S289.65,366,297.25,366S311,359.85,311,352.25S304.85,338.5,297.25,338.5z M214.75,338.5c-7.6,0-13.75,6.15-13.75,13.75
			S207.15,366,214.75,366s13.75-6.15,13.75-13.75S222.35,338.5,214.75,338.5z"/>
	</g>
</g>
</svg>
