<?xml version="1.0" encoding="utf-8"?>
<!-- Generator: Adobe Illustrator 15.0.2, SVG Export Plug-In . SVG Version: 6.00 Build 0)  -->
<!DOCTYPE svg PUBLIC "-//W3C//DTD SVG 1.1//EN" "http://www.w3.org/Graphics/SVG/1.1/DTD/svg11.dtd">
<svg version="1.1" id="Layer_1" xmlns="http://www.w3.org/2000/svg" xmlns:xlink="http://www.w3.org/1999/xlink" x="0px" y="0px"
	 width="219.998px" height="192.5px" viewBox="146 159.75 219.998 192.5" enable-background="new 146 159.75 219.998 192.5"
	 xml:space="preserve">
<g>
	<g>
		<path fill="#1D1D1B" d="M317.875,187.25c-2.283,0-4.539,0.161-6.785,0.483c-12.837-17.492-33.096-27.983-55.09-27.983
			c-21.995,0-42.244,10.492-55.089,27.983c-2.247-0.322-4.503-0.483-6.786-0.483c-26.533,0-48.125,21.592-48.125,48.125
			s21.592,48.125,48.125,48.125c5.881,0,11.638-1.074,17.062-3.15c12.442,10.85,28.27,16.9,44.812,16.9
			c16.562,0,32.37-6.052,44.812-16.9c5.426,2.076,11.183,3.15,17.062,3.15c26.533,0,48.125-21.592,48.125-48.125
			S344.408,187.25,317.875,187.25z M317.875,269.75c-7.357,0-14.145-2.363-19.738-6.302C288.048,275.604,273.025,283.5,256,283.5
			c-17.026,0-32.048-7.896-42.136-20.052c-5.586,3.938-12.38,6.302-19.739,6.302c-18.987,0-34.375-15.388-34.375-34.375
			S175.138,201,194.125,201c4.646,0,9.05,0.949,13.079,2.614C216.326,185.818,234.641,173.5,256,173.5
			c21.359,0,39.675,12.318,48.787,30.114c4.037-1.665,8.451-2.614,13.088-2.614c18.986,0,34.375,15.388,34.375,34.375
			S336.861,269.75,317.875,269.75z M242.25,338.5c0,7.6,6.15,13.75,13.75,13.75c7.6,0,13.75-6.15,13.75-13.75S256,311,256,311
			S242.25,330.9,242.25,338.5z"/>
	</g>
</g>
</svg>
